<?xml version="1.0" encoding="UTF-8"?><svg id="a" xmlns="http://www.w3.org/2000/svg" width="338.65" height="329.64" viewBox="0 0 338.65 329.64"><polygon points="129.13 260.02 33.18 189.88 21.13 142.02 52.13 122.02 293.29 126.28 318.49 144.88 300.13 191.02 265.13 219.02 213.13 262.02 129.13 260.02" fill="#ff6000" isolation="isolate" opacity=".5" stroke-width="0"/><path d="m337.59,71.54c-.35.95-.66,1.49-.77,2.07-1.68,9.7-7.43,16-16.74,18.42-5.81,1.51-8.58,5.07-9.82,10.34-.74,3.18-.99,6.47-1.51,9.7-.2,1.23-.54,2.44-1.27,3.66-1.24-25.84-5.34-50.86-17.99-74.65-1.3,9.51-5.34,16.36-13.07,21.14-4.56,2.82-8.04,6.82-6.15,13.03-3.72.48-7.39,1.04-11.09,1.39-1.79.17-3.62,0-5.42-.15-5.4-.41-10.47-1.36-13.74-6.47-1.65-2.56-3.78-4.81-5.69-7.2-.41.33-.83.66-1.24.98v3.1c-6.22-5.43-12.09-10.55-18.35-16.02-.13,2.07-.22,3.33-.33,5.07-1.55-.55-2.72-.87-3.8-1.38-3.83-1.82-7.46-4.29-11.47-5.47-12.83-3.76-19.08-12.89-21.84-25.21-.54-2.39.82-3.73,2.68-4.49,5.58-2.28,11.12-3.52,16.11,2.28-.63-6.4-3.5-10.52-9.25-12.04-5.8-1.54-11.03-3.91-15.34-8.18-2.02-2-4.34-1.91-6.34.06-4.23,4.19-9.32,6.59-15.04,8.05-5.78,1.48-8.76,5.56-9.51,12.1,4.66-5.44,9.97-4.6,15.34-2.66,2.93,1.06,3.98,2.88,3.14,6.33-3.04,12.54-10.24,20.76-22.91,24.23-3.48.96-6.58,3.25-9.89,4.87-1.16.57-2.42.92-4.02,1.5v-5.29c-6.5,5.67-12.35,10.77-18.63,16.26.08-1.41.12-2.27.22-4.14-3.82,3.96-6.99,7.31-10.24,10.59-.84.85-1.86,2.09-2.84,2.13-5.92.26-11.85.26-17.78.26-1.42,0-2.83-.32-4.49-.52,1.82-6.66-2.31-10.87-7.54-13.91-6.49-3.77-10.77-11.78-11.81-20.24-12.66,23.66-16.76,48.68-17.56,74.5-.28.02-.58.03-.86.05-.28-1.14-.6-2.28-.83-3.43-.91-4.41-1.52-8.9-2.75-13.21-.89-3.12-3.08-5.46-6.52-6.29-10.75-2.62-17.39-9.13-19.09-20.29-.04-.29-.28-.55-.65-1.27-1.42,13.91-1,27.34.12,40.75,1.61,19.18,4.47,38.14,10.21,56.59,7.21,23.16,22.36,40.18,41.55,54.12.82.6,1.69,1.13,2.5,1.75,2.18,1.67,3.97,3.35.57,5.66-.54.38-.69,1.36-1.04,2.11-4.85-.39-10.38,1.28-14.46-4.09,2.35,9.15,12.97,13.68,19.3,12.65.43-.08.9-.24,1.23-.51,3.39-2.7,6.87-5.3,10.08-8.21,1.72-1.55,2.95-3.64,4.83-6.03,1.95,1.75,3.88,3.47,5.8,5.2-.12.21-.24.41-.36.61-.92-.09-1.83-.18-2.75-.28-.16.22-.32.44-.47.66,5.28,3.96,10.56,7.92,16.48,12.35-1.75.22-2.67.33-3.58.44-.12.22-.25.43-.37.65,3.28,1.78,6.86,3.19,9.78,5.46,2.88,2.23,5.34,5.13,7.53,8.06,2.05,2.75,7.27,3.09,6.54,8.5.5.28,1.35.73,2.64,1.42-1,2.05-1.51,4.55-3.04,5.85-2.01,1.71-1.66,2.96-.41,4.49.98,1.22,2.07,2.46,3.37,3.29,2.35,1.5,2.81,2.86.03,4.6.91.55,1.63.99,2.87,1.74-1.55.73-2.71,1.28-4.55,2.14,2.34,1.12,4.35,2.09,6.74,3.23-1.13.5-2.09.92-3.82,1.68,2.91.99,5.24,1.79,7.72,2.63-.54.41-1.04.79-2.05,1.54,7.28.82,11.82,5.48,16.46,9.55,5.23,4.58,9.59,10.14,14.53,15.07,1.52,1.52,3.59,2.58,5.58,3.49,1.61.73,3.45.92,5.19,1.34h6.1c1.18-.29,2.36-.69,3.57-.86,3.85-.54,6.16-2.97,8.74-5.73,5.87-6.28,12.24-12.12,18.74-17.76,2.77-2.4,6.38-3.83,9.67-5.74.03.03-.47-.41-1.04-.91,2.39-.78,4.77-1.55,7.8-2.54-1.69-.76-2.64-1.18-3.95-1.77,2.24-1.11,4.14-2.04,6.48-3.19-1.74-.79-2.86-1.3-4.45-2.02,1.17-.83,1.84-1.31,2.62-1.86-2.2-1.73-1.8-3.07.31-4.48,1.29-.85,2.43-2.02,3.42-3.24,1.27-1.58,1.93-2.94-.35-4.75-1.49-1.18-1.96-3.65-2.95-5.68,1.14-.66,1.99-1.16,2.94-1.71-2.08-4.2,2.31-4.47,3.98-6.38,2.6-2.97,5.33-5.84,8.2-8.53,1.51-1.42,3.44-2.39,5.19-3.57,1.76-1.19,3.51-2.39,5.88-4.01-1.61-.1-2.52-.16-4.56-.28,5.95-4.58,11.13-8.56,16.31-12.54-.11-.23-.23-.46-.35-.69-.77.11-1.55.23-2.32.35-.16-.22-.32-.44-.47-.66,2.28-2.01,4.56-4.02,7.24-6.38.94,1.45,1.48,2.68,2.37,3.57,1.93,1.99,4.01,3.83,6.07,5.68,1.99,1.78,4,3.57,6.12,5.18.98.74,2.26,1.46,3.44,1.53,7.71.43,14.81-4.4,18.08-12.51-3.91,5.01-9.39,3.8-14.6,3.89-.24-.53-.44-1.3-.89-1.9-2.62-3.49-2.63-3.7,1.06-6.28,12.33-8.63,23.17-18.75,31.75-31.2,9.18-13.31,13.87-28.41,16.57-44.05,2.5-14.45,3.84-29.1,5.71-43.66.15-1.11.38-2.2.57-3.31v-24.42c-.32-1.75-.64-3.51-1.05-5.75v.06ZM30.13,145.02s19,45,80,90c0,0-70-30-80-90Zm15-8s19,45,80,90c0,0-70-30-80-90Zm97.98,68.73s25.75,16.27,10.89,45.27c0,0-5.87,10-13.87,0,0,0-5-14,7-26,0,0,1.97-9.54-4.02-19.27Zm-4.26,81.04c-5.97-5.97-5.97-15.64,0-21.6l21.6,21.6c-5.97,5.97-15.64,5.97-21.6,0Zm57.07-81.3c-5.98,9.73-4.02,19.27-4.02,19.27,12,12,7,26,7,26-8,10-13.87,0-13.87,0-14.87-29,10.89-45.27,10.89-45.27Zm2.73,81.3c-5.97,5.97-15.64,5.97-21.6,0l21.6-21.6c5.97,5.97,5.97,15.64,0,21.6Zm14.63-59.91c61-45,80-90,80-90-10,60-80,90-80,90h0Zm15,8c61-45,80-90,80-90-10,60-80,90-80,90h0Z" fill="#ff6000" stroke-width="0"/></svg>