<svg xmlns="http://www.w3.org/2000/svg" width="362.954" height="201.848" viewBox="0 0 362.954 201.848"><defs><style>.a,.b{fill:#008416;}.b{opacity:0.5;}</style></defs><g transform="translate(-458.262 -457.449)"><path class="a" d="M904.445,436.413l-14.466,7.149a83.123,83.123,0,0,1,16.007,67.173l88.627-43.8h0A67.313,67.313,0,0,0,904.445,436.413Z" transform="translate(-257.46 49.292)"/><path class="a" d="M881.234,558.822c1.076.452,2.172.872,3.305,1.235l31.052,9.929a39.586,39.586,0,0,0,49.763-25.648L902.97,524.389A82.846,82.846,0,0,1,881.234,558.822Z" transform="translate(-257.124 45.646)"/><path class="a" d="M783.574,425.758c-.711.351-1.4.73-2.092,1.1L734.272,447.3a42.311,42.311,0,0,0-22.011,55.641l14.254-6.173a27.8,27.8,0,0,0,.36,21.289h0l16-6.928a76.447,76.447,0,1,0,40.7-85.374Zm62.773,54.768a23.553,23.553,0,0,1-26.034-20.779l46.812-5.255A23.554,23.554,0,0,1,846.347,480.526Z" transform="translate(-250.503 49.737)"/><path class="b" d="M1002.556,476.5l34.05-67.281a3.48,3.48,0,0,1,5.887-.52l22.907,30.453a3.48,3.48,0,0,1-.8,4.954l-55.476,38.4a3.48,3.48,0,0,1-4.514-.475l-1.482-1.572A3.48,3.48,0,0,1,1002.556,476.5Z" transform="translate(-261.767 50.141)"/><path class="b" d="M1003.728,504.175l64.287-22.058a4.59,4.59,0,0,1,6.043,4.922l-5.86,45.906a4.589,4.589,0,0,1-5.844,3.823l-56.562-16.58a4.589,4.589,0,0,1-3.154-3.264l-1.865-7.267A4.592,4.592,0,0,1,1003.728,504.175Z" transform="translate(-261.708 47.279)"/><path class="b" d="M999.815,535.578l80.144,38.244a4.561,4.561,0,0,1,.958,7.617L1043.1,613a4.559,4.559,0,0,1-6.629-.847l-44.594-62.284a4.564,4.564,0,0,1-.659-3.971l2.269-7.525A4.561,4.561,0,0,1,999.815,535.578Z" transform="translate(-261.339 45.234)"/></g></svg>