<svg xmlns="http://www.w3.org/2000/svg" width="330.436" height="156.206" viewBox="0 0 330.436 156.206"><defs><style>.a,.b{fill:#008416;}.a{opacity:0.5;}</style></defs><g transform="translate(-36.103 -584.622)"><rect class="a" width="115.059" height="12.433" rx="6.217" transform="translate(88.903 601.836)"/><path class="a" d="M311.675,576.809h85.883a6.458,6.458,0,0,1,6.675,6.217h0a6.458,6.458,0,0,1-6.675,6.216H311.675A6.458,6.458,0,0,1,305,583.026h0A6.458,6.458,0,0,1,311.675,576.809Z" transform="translate(-235.003 43.634)"/><rect class="a" width="136.75" height="12.433" rx="6.217" transform="translate(52.123 639.05)"/><rect class="a" width="135.805" height="12.433" rx="6.217" transform="translate(68.15 659.331)"/><path class="b" d="M468.56,674.986a14.052,14.052,0,0,1-5.368-8.475c-7.592,7.468-14.719,14.215-14.719,14.215-13.634,25.378,10.334,19.266,10.334,19.266,13.626-.937,4.229-17.856,4.229-17.856C461.58,680.818,464.345,678.037,468.56,674.986Z" transform="translate(-240.35 40.191)"/><path class="b" d="M600.167,569.639c-.473-2.82-10.334-9.637-10.334-9.637.473-9.164-14.1-14.8-14.1-14.8l-8.931-5.64v5.168l-7.05-5.168v8.459a84.134,84.134,0,0,1-68.612,11.752C422.53,542.378,388.7,580.445,388.7,580.445c-7.522,2.324-25.378,24.433-25.378,24.433-33.837,50.756-61.562,46.054-61.562,46.054a125.589,125.589,0,0,0-25.919-3.377,6.2,6.2,0,0,0-2.89,11.619,78.856,78.856,0,0,0,23.642,6.755c42.761,3.293,92.107-70.958,92.107-70.958.071.181.152.362.239.542l.093.179.186.356.124.21.194.317.155.217.209.3.17.224.225.3.194.224.248.279.209.225.263.279.225.225.28.27.239.217.3.271.248.209.317.264.263.209.334.263.271.2.349.256.287.2.364.256.294.2.388.256.3.193.4.248.31.186.411.248.311.178.434.248.311.178.449.248.317.17.465.239.317.164.481.239.317.156.5.239.317.147.512.24.317.147.527.24.311.139.541.24.3.132.565.24.287.123.589.24.271.109.612.247.256.1.635.248.233.093.667.247.209.078.713.263.163.062.774.271.124.038.837.3h0c2.324.774,4.647,1.549,6.8,2.138h0l.775.225h.046l.72.2h.116l.651.178h.109l.628.17h.124l.589.156h.132l.565.147h.132l.534.139h.148l.512.132h.131l.473.116.155.038.435.1h.155l.4.093h.163l.38.093h.123l.372.085h.124l.317.069h.148l.286.063h.116l.272.062h.109l.225.046h1.222A38.373,38.373,0,0,0,432.4,614.1a34.8,34.8,0,0,1-11.743,22.465s-9.4,10.845,8.459,11.752c0,0,33.628,6.375,30.8,9.18,0,0,.689,15.725,16.2,7.266,0,0,19.412-10.559-5.33-18.437l-35.549-8.351a48.47,48.47,0,0,0,34.217-33.52l13.246,5.795a2.163,2.163,0,0,0-.225.17l-.07.069-.147.156-.078.093-.138.17-.086.108-.147.209-.07.109-.2.334h0l-.216.4-.07.139-.147.294-.086.17-.138.3-.078.187-.138.34-.078.178-.187.481v.062l-.209.573-.07.194-.147.411-.078.233-.131.4-.078.24-.139.442-.069.216-.178.581v.1l-.2.7-.054.194-.147.527-.07.247-.132.5-.069.256-.139.535-.054.224-.178.721v.039l-.2.774v.133l-.156.659-.046.216-.138.6-.047.224-.138.628-.038.17c-.124.55-.24,1.108-.357,1.666h0l-.17.774v.133l-.139.7v.123l-.155.775v.038c-1.364,6.887-2.254,12.975-2.254,12.975-.178.263-.411.582-.689.93,7.847,2.735,12.247,6.2,13.393,10.535a111.208,111.208,0,0,0,13.8-21.969h0l.062-.124.264-.519.178-.357.263-.519.1-.2.519-1.054.109-.216.24-.489.116-.233.216-.457.078-.163.441-.922h0l.17-.364.078-.155.147-.3.07-.147.34-.774v-.062l.054-.124v-.062l.046-.109h23.5c17.856.938,29.607-37.121,29.607-37.121a62.271,62.271,0,0,1,24.441-5.64C601.576,584.226,600.167,569.639,600.167,569.639Z" transform="translate(-233.65 45.064)"/></g></svg>