<svg xmlns="http://www.w3.org/2000/svg" width="226.35" height="181.624" viewBox="0 0 226.35 181.624"><defs><style>.a,.b{fill:#008416;}.b{opacity:0.5;}</style></defs><g transform="translate(-1268.127 -121.069)"><path class="a" d="M1640.425,215.219l35.347,16.828,12.319,5.865a12.455,12.455,0,0,0,16.6-5.892l5.865-12.319,16.828-35.346a13.049,13.049,0,1,0-23.564-11.219l-9.349,19.637L1649.756,66.794a13.958,13.958,0,0,0-17.824-8.486h0a13.959,13.959,0,0,0-8.485,17.824l43.605,122.857-15.125-7.2a13.254,13.254,0,0,0-17.462,5.613A13.05,13.05,0,0,0,1640.425,215.219Z" transform="translate(-285.586 63.57)"/><path class="a" d="M1552.431,147.141a5.02,5.02,0,0,0,0,7.1l7.673,7.673a5.3,5.3,0,0,0,.4.452l11.675,11.675a18.013,18.013,0,0,0,25.442,0l11.675-11.675a5.114,5.114,0,0,0,.4-.452l11.222-11.222a7.959,7.959,0,0,1,11.246,0l11.222,11.222a5.133,5.133,0,0,0,.4.452l11.675,11.675a18.013,18.013,0,0,0,25.442,0l11.675-11.675a5.121,5.121,0,0,0,.4-.457l11.218-11.217a7.96,7.96,0,0,1,11.246,0l11.222,11.222a5.134,5.134,0,0,0,.4.452l11.675,11.675a18.013,18.013,0,0,0,25.442,0l11.675-11.675a5.019,5.019,0,0,0-7.1-7.1l-11.675,11.675a7.959,7.959,0,0,1-11.245,0L1734.6,155.719a4.875,4.875,0,0,0-.4-.453l-11.674-11.674a18.013,18.013,0,0,0-25.442,0l-11.675,11.674a5.173,5.173,0,0,0-.4.453l-11.222,11.222a7.959,7.959,0,0,1-11.245,0l-11.223-11.222a4.893,4.893,0,0,0-.4-.453l-11.674-11.674a18.015,18.015,0,0,0-25.443,0l-11.674,11.674a4.839,4.839,0,0,0-.4.453l-11.223,11.222a7.959,7.959,0,0,1-11.245,0l-11.223-11.222a4.877,4.877,0,0,0-.4-.453l-8.125-8.125a5.02,5.02,0,0,0-7.1,0Z" transform="translate(-282.835 60.467)"/><path class="b" d="M1552.431,109.562a5.018,5.018,0,0,1,7.1,0l8.125,8.125a4.867,4.867,0,0,1,.4.452l11.223,11.222a7.957,7.957,0,0,0,11.245,0l11.223-11.222a4.83,4.83,0,0,1,.4-.452l11.674-11.674a18.013,18.013,0,0,1,25.443,0l11.674,11.674a4.884,4.884,0,0,1,.4.452l11.223,11.222a7.957,7.957,0,0,0,11.245,0l11.222-11.221a5.038,5.038,0,0,1,.4-.453l11.675-11.674a18.011,18.011,0,0,1,25.442,0l11.674,11.674a4.866,4.866,0,0,1,.4.452l11.223,11.222a7.957,7.957,0,0,0,11.245,0l11.675-11.674a5.019,5.019,0,0,1,7.1,7.1l-11.675,11.674a18.01,18.01,0,0,1-25.442,0l-11.675-11.674a5.009,5.009,0,0,1-.4-.453l-11.222-11.221a7.959,7.959,0,0,0-11.246,0l-11.218,11.216a5.13,5.13,0,0,1-.4.458l-11.675,11.674a18.011,18.011,0,0,1-25.442,0l-11.675-11.674a5.007,5.007,0,0,1-.4-.453l-11.222-11.221a7.958,7.958,0,0,0-11.246,0l-11.222,11.221a4.99,4.99,0,0,1-.4.453l-11.675,11.674a18.01,18.01,0,0,1-25.442,0L1560.5,124.786a5.164,5.164,0,0,1-.4-.453l-7.673-7.672a5.02,5.02,0,0,1,0-7.1Z" transform="translate(-282.835 61.909)"/></g></svg>