<svg xmlns="http://www.w3.org/2000/svg" width="251.79" height="206.566" viewBox="0 0 251.79 206.566"><defs><style>.a,.b{fill:#008416;}.a{opacity:0.5;}</style></defs><g transform="translate(-1232.736 -986.73)"><path class="a" d="M1770.379,1072.358l-40.612-5.993a1.413,1.413,0,0,1-.777-2.413l33.645-32.607a1.413,1.413,0,0,0-1.477-2.339l-44.963,16.784a1.413,1.413,0,0,1-1.86-1.689l10.541-39.511a1.413,1.413,0,0,0-2.393-1.336l-32.763,34.672a1.414,1.414,0,0,1-2.278-.312h0a1.76,1.76,0,0,0-3.279.448,73.132,73.132,0,0,1-10.137,24.468l-.9,1.417a2.977,2.977,0,0,0,.166,3.428h0l.168,1.187c.934,6.609,1.866,15.981,1.011,23.1-.687,5.723-3.488,14.429-4.507,17.471a26.179,26.179,0,0,0,2.639,6c3.325,6.222,7.881,14.742-.916,25.581a29.938,29.938,0,0,1-10.663,7.7l1.472,16.316a1.413,1.413,0,0,0,2.686.474l17.775-37.806a1.413,1.413,0,0,1,2.377-.289l23.1,28.548a1.413,1.413,0,0,0,2.508-.985l-2.715-39.8a1.414,1.414,0,0,1,1.718-1.476l39.207,8.722a1.413,1.413,0,0,0,1.357-2.324l-24.678-27.431a1.413,1.413,0,0,1,.6-2.283l44.195-14.985A1.413,1.413,0,0,0,1770.379,1072.358Z" transform="translate(-287.06 27.281)"/><path class="b" d="M1649.057,1014.919c-7.136,1.153-13.007,4.682-19.112,8.908a20.78,20.78,0,0,1,.969,8.385,22.808,22.808,0,0,1-1.949,6.874c13.148,4.109,29.336,10.094,40.051,21.494,7.991-12.576,11.265-25.533,10.744-37.939C1666.312,1015.214,1656.79,1013.722,1649.057,1014.919Z" transform="translate(-285.829 26.83)"/><path class="b" d="M1596.934,1003.72a28.855,28.855,0,0,1,13.138.2c2.3-8.474,6.286-16.571,13.084-22.877,6.518-6.056,15.568-10.29,27.669-11.721a54.315,54.315,0,0,0-30.111-11.5,59.8,59.8,0,0,0-23.867,3.573l.43.293C1587.651,975.652,1588.2,989.025,1596.934,1003.72Z" transform="translate(-284.341 29.011)"/><path class="b" d="M1599.933,1085.5a86.21,86.21,0,0,1-17.6-12.4,24.051,24.051,0,0,1-9.12,9.665c1.293.579,2.586,1.157,3.874,1.63C1585.975,1087.742,1594.554,1087.556,1599.933,1085.5Z" transform="translate(-283.688 24.582)"/><path class="b" d="M1617.431,1007.079a23.911,23.911,0,0,1,9.317,9c6.057-4.119,12.628-7.968,20.814-9.272,8.517-1.335,18.5.206,30.91,6.336a67.464,67.464,0,0,0-12.392-28.4,79,79,0,0,0-7.2-8.492c-14.374.43-23.725,4.495-30.12,10.415C1622.939,992.074,1619.468,999.172,1617.431,1007.079Z" transform="translate(-285.386 28.3)"/><path class="b" d="M1575.37,1017.735a49.563,49.563,0,0,1,4.021-4.77,31.085,31.085,0,0,1,9.507-6.829c-7.393-13.315-8.935-27.09-3.031-40.263h0a83.071,83.071,0,0,0-13.818,9.255c-9.324,7.656-17.117,18.489-22.187,30.249C1557.3,1013.672,1565.3,1018.227,1575.37,1017.735Z" transform="translate(-282.792 28.698)"/><path class="b" d="M1663.389,1069.882l-1.118-1.431a37.6,37.6,0,0,0-4.41-4.856l-.715-.656-1.891-1.583c-.656-.5-1.284-.975-1.912-1.45-10.119-7.357-23.581-12.007-34.583-15.364l-2.839-.881c-.5,0-1.032-.035-1.559-.012a54.433,54.433,0,0,0-8.924-20.7c-5.168-7.121-12.964,5.077-11.951,13.857,1.036,9.307,6.009,13.768,6.009,13.768-8.147,2.809-15.221,5.385-21.7,7.752,4.888,7.372,13.639,14.892,27.97,21.909l4.1,1.99-3.134,3.305c-7.049,7.463-20.673,8.236-34.259,3.168a56.294,56.294,0,0,1-25.685-19.763,229.951,229.951,0,0,1-24.044,5.582,10.419,10.419,0,0,0-5.2,17.935l63.306,58.073c2.571-2.859,5.3-5.672,8.138-8.541l1.661,4.208,5-10.149,3.231,5.092,9.3-19.527a78.854,78.854,0,0,0,8.174-12c9.477,13.91,20.962,31.537,30.268,36.578,2.705,1.468,12.029-2.783,15.946-7.609,10.234-12.611-1.926-20.152-2.843-29.148,0,0,3.879-11.131,4.656-17.61C1665.282,1084.383,1664,1074.188,1663.389,1069.882Zm-15.483-3.264,6.613,22.395S1630.095,1088.64,1647.906,1066.618Z" transform="translate(-281.421 26.589)"/><path class="b" d="M1568.221,1051.58a27.319,27.319,0,0,1-19.361,6.805,51.245,51.245,0,0,0,16.4,19.4c6.382-2.1,9.4-5.715,11.188-10.706A39.215,39.215,0,0,1,1568.221,1051.58Z" transform="translate(-282.754 25.408)"/><path class="b" d="M1567.086,1040.884a35.707,35.707,0,0,1,3.912-14.646h0c-9.229-.767-17.19-5.335-23.993-12.082-4.022,12.264-4.878,24.953-1.3,35.681A20.367,20.367,0,0,0,1567.086,1040.884Z" transform="translate(-282.546 26.845)"/></g></svg>