<svg xmlns="http://www.w3.org/2000/svg" width="283.05" height="211.719" viewBox="0 0 283.05 211.719"><defs><style>.a,.b{fill:#008416;}.a{opacity:0.5;}</style></defs><g transform="translate(-879.337 -2303.601)"><path class="a" d="M1379.125,2377.206l22.518-48.613a2.473,2.473,0,0,1,4.168-.514l17.017,21.058a2.473,2.473,0,0,1-.446,3.538l-38.444,28.633a2.473,2.473,0,0,1-3.217-.225l-1.09-1.08A2.474,2.474,0,0,1,1379.125,2377.206Z" transform="translate(-276.229 -23.56)"/><path class="a" d="M1380.6,2396.8l45.1-17.248a3.261,3.261,0,0,1,4.412,3.346l-3.028,32.741a3.262,3.262,0,0,1-4.056,2.859l-40.57-10.379a3.259,3.259,0,0,1-2.32-2.24l-1.5-5.114A3.261,3.261,0,0,1,1380.6,2396.8Z" transform="translate(-276.214 -25.563)"/><path class="a" d="M1378.578,2419.254l57.849,25.179a3.24,3.24,0,0,1,.867,5.385l-26.074,23.344a3.241,3.241,0,0,1-4.729-.437l-33.2-43.125a3.245,3.245,0,0,1-.565-2.8l1.425-5.4A3.241,3.241,0,0,1,1378.578,2419.254Z" transform="translate(-275.988 -27.084)"/><path class="b" d="M1361.845,2358.162c-7.619,2.072-15.224,3.734-22.552,6.219-14.278,4.841-28.41,10.116-42.575,15.287a4.532,4.532,0,0,1-4.275-.324c-4.22-2.413-8.969-2.839-13.69-2.8a108.981,108.981,0,0,0-30.861,4.861,12.348,12.348,0,0,1-5.694.549c-13.061-2.561-26.089-1.956-39.1.17a194.362,194.362,0,0,0-36.007,9.4c-.552.2-1.139.312-2.1.569a46.838,46.838,0,0,0,14.485,10.351c8.394,3.911,17.462,4.717,26.477,5.779a81.069,81.069,0,0,1,8.862,1.428,321.409,321.409,0,0,0-43.774,3.945,51.451,51.451,0,0,0-16.944,5.844,14.514,14.514,0,0,0-7.445,13c.68,32.667,16.283,85.541,104.191,107.444a5.93,5.93,0,0,0,6.7-8.527l-.054-.1c-3.873-6.884-4.579-14.39.719-22.106,2.651-3.863,6.051-7.208,9.073-10.822a94.683,94.683,0,0,0,16.371-27.443c.66-1.755,1.967-1.962,3.314-2.342,20.581-5.813,42.753-18.078,62.1-27.19a5.163,5.163,0,0,0,3.087-3.382,45.257,45.257,0,0,0,2.129-18.686l-2.588,1.254-4.271-7.557a.744.744,0,0,0-1.392.366v9.935l-15.2,7.364-24.355-9.662a4.281,4.281,0,0,1-1.027-7.377c8-6.145,22.263-14.038,22.263-14.038l19.472-7.825,5.219,6.675a1.048,1.048,0,0,0,1.852-.432l1.985-9.543a3.282,3.282,0,0,0,2.641-2.041C1363.694,2377.571,1363.947,2368.282,1361.845,2358.162Zm-103.851,32.187,31.531,1.7S1264.46,2411.5,1257.994,2390.349Z" transform="translate(-267.313 -24.75)"/></g></svg>