<svg xmlns="http://www.w3.org/2000/svg" width="221.254" height="231.24" viewBox="0 0 221.254 231.24"><defs><style>.a,.b{fill:#008416;}.b{opacity:0.5;}</style></defs><g transform="translate(-501.908 -675.989)"><path class="a" d="M976.435,725.788,970,669.9l-2.241-19.477a17.9,17.9,0,0,0-19.827-15.734l-19.477,2.242-55.885,6.431a18.752,18.752,0,1,0,4.288,37.258l31.048-3.573L788.5,827.514a20.06,20.06,0,0,0,3.244,28.182h0a20.059,20.059,0,0,0,28.181-3.243l116.45-146.737,2.752,23.914c1.162,10.1,10.006,17.8,20.143,17A18.75,18.75,0,0,0,976.435,725.788Z" transform="translate(-253.397 41.417)"/><path class="b" d="M820.277,742.559a8.126,8.126,0,0,0,8.595,7.252,8,8,0,0,0,7.324-8.892l-2.744-23.845-.956-8.31a7.636,7.636,0,0,0-8.459-6.713l-8.31.956-23.845,2.744a8,8,0,1,0,1.829,15.9l13.247-1.524-50.949,64.2a8.559,8.559,0,0,0,13.409,10.641l49.686-62.61Z" transform="translate(-252.246 38.828)"/><path class="b" d="M935.277,815.559a8.126,8.126,0,0,0,8.595,7.252,8,8,0,0,0,7.324-8.892l-2.744-23.845-.956-8.31a7.636,7.636,0,0,0-8.459-6.713l-8.31.956-23.845,2.744a8,8,0,1,0,1.829,15.9l13.247-1.524-50.949,64.2a8.559,8.559,0,0,0,13.409,10.641l49.686-62.61Z" transform="translate(-256.66 36.026)"/></g></svg>