<svg xmlns="http://www.w3.org/2000/svg" width="235.507" height="250.147" viewBox="0 0 235.507 250.147"><defs><style>.a{fill:#008416;}</style></defs><g transform="translate(-894.44 -370.608)"><path class="a" d="M1393.144,317l-.066.125c-8.5,16.751-25.123,28.205-39.743,39.061-50.348,35.336-59.176,57.79-37.849,112.455a3.257,3.257,0,0,0,5.827.492l23.545-39.336-11.313.249c19.514-9.482,38.611-19.023,51.575-37.973l-30.9,10.2c19.982-12.432,42.889-22.091,49.1-50.743l-27.389,19.022C1388.649,354.724,1403.39,340.037,1393.144,317Z" transform="translate(-273.378 53.608)"/><path class="a" d="M1173.1,527.78a71.815,71.815,0,0,0,93.631,39.344h0a71.816,71.816,0,0,0,39.345-93.632l-6.158-15.082A4.4,4.4,0,0,0,1294.18,456l-124.825,50.959a4.4,4.4,0,0,0-2.412,5.74Z" transform="translate(-268.08 48.284)"/><path class="a" d="M1294.314,442.636l-2.01-4.922-5.322-13.038-4.335-10.619a11.019,11.019,0,0,0-14.366-6.037l-11.14,4.548a11.017,11.017,0,0,0-6.036,14.366l.635,1.556-18.479,11a286.269,286.269,0,0,0-64.48,52.362l-5.849,6.374a2.04,2.04,0,0,0,2.356,3.244l109.841-44.843,11.14-4.547,4.922-2.01A5.7,5.7,0,0,0,1294.314,442.636Zm-23.6-16.046-2.876,1.851a3.7,3.7,0,0,1-5.111-1.108L1260.9,424.5a3.7,3.7,0,0,1,1.108-5.111l2.876-1.851a3.7,3.7,0,0,1,5.111,1.108l1.823,2.832A3.7,3.7,0,0,1,1270.715,426.59Z" transform="translate(-267.917 50.145)"/></g></svg>