<svg xmlns="http://www.w3.org/2000/svg" width="233.582" height="284.981" viewBox="0 0 233.582 284.981"><defs><style>.a{fill:#008416;}</style></defs><g transform="translate(-80.491 -2027.464)"><path class="a" d="M362.939,2244.647c-32.431-35.027-28.518-91.775,9.364-127.058,27.919-25.877,66.577-33.177,98.425-21.767.188-.026.38-.039.569-.062l-19.739,5.775c-6.738,1.971-11,8.8-9.514,15.249h0c1.478,6.45,8.126,10.08,14.852,8.107l36.572-10.713,14.716-4.305c5.357-1.566,8.774-6.99,7.628-12.115l-3.157-14.08-7.9-35.035c-1.461-6.451-8.145-10.08-14.924-8.109s-11.075,8.8-9.6,15.25l4.167,18.3a110.492,110.492,0,0,0-11.949-3.949l-.047-.208c-50.647-13.809-108.995,8.667-138.694,56.9-27.633,45.2-22.055,99.372,9.631,134.187a20.422,20.422,0,0,1,2.352-5.552,21.051,21.051,0,0,1,11.992-9.254Z" transform="translate(-235.423 -12.536)"/><path class="a" d="M415.72,2237.419a16.033,16.033,0,0,1,15.81,12.44,16.91,16.91,0,0,1-.581,9.315c39.239-2.1,74.063-34.381,78.789-73.893,2.983-24.945-6.851-47.007-24.358-60.413l-25.4,7.442a17.968,17.968,0,0,1-5.052.734,16.132,16.132,0,0,1-15.919-12.428,16.757,16.757,0,0,1,.537-9.217c-39.558,2.183-74.282,34.425-78.588,73.883-2.717,24.9,7.177,46.928,24.565,60.341l25.169-7.466A17.724,17.724,0,0,1,415.72,2237.419Z" transform="translate(-237.135 -15.277)"/><path class="a" d="M542.1,2130.271c-.049.081-.106.158-.156.238a100.856,100.856,0,0,0-15.413-24.868,20.472,20.472,0,0,1-2.669,6.4,21.66,21.66,0,0,1-12.249,9.253l-4.48,1.312c22.77,27.458,25.5,68.61,3.883,103.111-19.806,31.774-54.763,49.35-88.56,47.877a87.316,87.316,0,0,1-20.114-3.24l14.772-4.387c6.645-1.972,10.852-8.8,9.391-15.249s-8.046-10.081-14.7-8.108l-36.12,10.713-14.5,4.305a10.488,10.488,0,0,0-7.391,12.115l3.264,14.08,8.075,35.036c1.48,6.45,8.029,10.08,14.631,8.108s10.773-8.8,9.3-15.25l-4.787-20.976a107.7,107.7,0,0,0,10.564,3.524c38.043,10.534,82.244.411,115.182-30.244C549.348,2227.625,560.961,2173.249,542.1,2130.271Z" transform="translate(-236.868 -15.056)"/></g></svg>