<svg xmlns="http://www.w3.org/2000/svg" width="320.199" height="319.765" viewBox="0 0 320.199 319.765"><defs><style>.a,.b{fill:#008416;}.b{opacity:0.5;}</style></defs><g transform="translate(-815.12 -725.091)"><path class="a" d="M1079.87,747.9l.2.017c26.462,1.908,50.466,17.279,72.6,30.375,45.956,28.877,76.5,39.393,107.459,29.158L1226.448,849.5a6.745,6.745,0,0,0-.876,7.5l-11.207,13.755a.845.845,0,0,0,1.189,1.189l13.936-11.354a6.747,6.747,0,0,0,6.905-1.151l41.955-33.636c-10.182,30.929.341,61.454,29.19,107.364,13.1,22.132,28.468,46.135,30.375,72.6l.016.2c25.943-24.387,14.788-51.573,6.9-79.137l25.251,39.749c7.583-40.7-16.956-65.813-36.17-92.929l34.646,30.186c-6.51-31.766-26.154-54.633-46.372-77.654l14.591,6.513c-2.273-15.954-4.519-31.709-6.872-48.219l36.982-29.648h16.859a1.692,1.692,0,0,0,1.2-2.888l-9.912-9.911a3.928,3.928,0,0,0-4.611-.7l-8.187,4.317a.883.883,0,0,1-1.037-1.406l5.246-5.246a3.929,3.929,0,0,0,0-5.557l-32.575-32.576a1.692,1.692,0,0,0-2.888,1.2v16.934l-29.589,36.943-48.245-6.876,6.513,14.592c-23.021-20.218-45.889-39.862-77.655-46.373l30.186,34.646c-27.115-19.214-52.224-43.752-92.928-36.169l39.748,25.25C1131.442,733.115,1104.256,721.959,1079.87,747.9Z" transform="translate(-264.75 38.891)"/><rect class="b" width="14.543" height="99.821" rx="7.272" transform="translate(1050.244 880.75) rotate(-135)"/><rect class="b" width="14.543" height="99.821" rx="7.272" transform="translate(1057.724 920.015) rotate(-135)"/><rect class="b" width="14.543" height="99.821" rx="7.272" transform="translate(1064.735 955.073) rotate(-135)"/><rect class="b" width="14.543" height="99.821" rx="7.272" transform="translate(1050.244 739.581) rotate(45)"/><rect class="b" width="14.543" height="99.821" rx="7.272" transform="translate(1010.979 732.102) rotate(45)"/><rect class="b" width="14.543" height="99.821" rx="7.272" transform="translate(975.92 725.091) rotate(45)"/></g></svg>