<svg xmlns="http://www.w3.org/2000/svg" width="257.248" height="209.113" viewBox="0 0 257.248 209.113"><defs><style>.a{fill:#008416;}</style></defs><path class="a" d="M992.73,1005.738l-47.089,69.891a5.254,5.254,0,0,0,.267,6.215,104.265,104.265,0,0,1,22.673,59.757,5.247,5.247,0,0,1-5.243,5.512H764.57a5.247,5.247,0,0,1-5.243-5.512,104.269,104.269,0,0,1,22.713-59.809,5.254,5.254,0,0,0,.269-6.218l-46.828-69.5.545-.545,72.825,49.065a5.241,5.241,0,0,0,5.422.26,104.06,104.06,0,0,1,25.124-9.613,5.247,5.247,0,0,0,3.934-4.094L863.437,938h.771L884.3,1041.079a5.248,5.248,0,0,0,3.946,4.1,104.068,104.068,0,0,1,25.289,9.622,5.241,5.241,0,0,0,5.415-.263l73.234-49.341Z" transform="translate(-735.482 -938)"/></svg>