<svg xmlns="http://www.w3.org/2000/svg" width="259.104" height="172.677" viewBox="0 0 259.104 172.677"><defs><style>.a{fill:#008416;}</style></defs><g transform="translate(-86.337 -349.391)"><path class="a" d="M535.263,317.991l-.039-.206C401.382,348.61,345.287,431.413,328.111,463.54a3.308,3.308,0,0,0,4.911,4.2c93.077-70.786,197.491-79.277,213.353-80.175.685-.012,1.369-.047,2.056-.1h.017a35.579,35.579,0,1,0-13.185-69.475Z" transform="translate(-235.875 53.631)"/><path class="a" d="M325.952,442.089c33.568-66.011,90.767-99.625,99.562-104.508.388-.2.768-.4,1.145-.622l.011,0h0a22.532,22.532,0,1,0-26.662-35.982l-.079-.107c-67.823,54.458-76.993,117.13-77.934,140.183A2.1,2.1,0,0,0,325.952,442.089Z" transform="translate(-235.656 54.455)"/><path class="a" d="M485.7,422.18l0-.1c-65.278.665-99.762,33.386-111.011,46.551a1.572,1.572,0,0,0,1.851,2.45c50.428-23.372,99.767-16.669,107.223-15.468.319.064.64.118.965.164h.009a16.911,16.911,0,1,0,.962-33.6Z" transform="translate(-237.664 49.574)"/></g></svg>