<svg xmlns="http://www.w3.org/2000/svg" width="180.977" height="257.712" viewBox="0 0 180.977 257.712"><defs><style>.a,.b{fill:#008416;}.a{opacity:0.5;}</style></defs><g transform="translate(-1601.843 -383.109)"><circle class="a" cx="13.03" cy="13.03" r="13.03" transform="translate(1708.982 614.76)"/><circle class="a" cx="7.963" cy="7.963" r="7.963" transform="translate(1745.177 592.319)"/><circle class="a" cx="7.963" cy="7.963" r="7.963" transform="translate(1650.345 554.675)"/><path class="b" d="M2068.046,391.58a27.873,27.873,0,0,0-27.819-47.792,52.469,52.469,0,0,0-79.309,9.882,43.065,43.065,0,0,0-47.726,71.044,48.137,48.137,0,0,0,43.083,69.615,48.606,48.606,0,0,0,6.1-.4,45.291,45.291,0,0,0,13.931,20.839,32.915,32.915,0,0,0,2.975,22.839,15.926,15.926,0,1,0,23.376,17.021,32.9,32.9,0,0,0,34.615-16.586,28.232,28.232,0,0,0,10.787-42.464,44.986,44.986,0,0,0,2.566-12.293,25.3,25.3,0,0,0,28.348-25.153,25.273,25.273,0,0,0-8.292-18.747,34.718,34.718,0,0,0-2.64-47.806Zm-89.712-15.869a2.9,2.9,0,0,1-3.212,2.54c-7.258-.846-12.265.309-14.887,3.436-4.05,4.833-1.578,13.264-1.552,13.349a2.9,2.9,0,0,1-2.622,3.733c-7.979.409-13.527,2.738-16.487,6.923-4.344,6.139-1.906,14.606-1.881,14.691a2.9,2.9,0,0,1-5.546,1.671c-.136-.453-3.292-11.185,2.666-19.66,3.561-5.067,9.474-8.127,17.6-9.121-.564-3.938-.676-10.44,3.356-15.277,3.948-4.737,10.682-6.587,20.021-5.5A2.894,2.894,0,0,1,1978.334,375.71Zm49.929,110.73a2.9,2.9,0,0,1-2.851,2.41,2.942,2.942,0,0,1-.49-.042,2.9,2.9,0,0,1-2.367-3.342c.5-2.955.121-5.213-1.14-6.712-2.085-2.481-6.094-2.524-6.134-2.524a2.907,2.907,0,0,1-2.863-3.371c.653-3.919.086-6.823-1.684-8.63-2.925-2.988-8.906-2.865-10.961-2.563a2.9,2.9,0,0,1-.857-5.728c.417-.064,10.321-1.484,15.933,4.217,2.6,2.637,3.8,6.218,3.6,10.673a13.322,13.322,0,0,1,7.354,4.151C2028.245,477.845,2029.071,481.7,2028.263,486.44Zm31.42-105.115a14.963,14.963,0,0,1-8.332,12.212,2.9,2.9,0,0,1-2.658-5.146,9.179,9.179,0,0,0,5.232-7.677,16.844,16.844,0,0,0-3.89-12.649,17.551,17.551,0,0,0-12.078-6.256,20.391,20.391,0,0,0-5.161.231,2.9,2.9,0,0,1-1.24-5.656,25.523,25.523,0,0,1,6.839-.349,23.37,23.37,0,0,1,16.09,8.324A22.588,22.588,0,0,1,2059.682,381.325Z" transform="translate(-296.157 53.109)"/></g></svg>