<svg xmlns="http://www.w3.org/2000/svg" width="261.998" height="289.748" viewBox="0 0 261.998 289.748"><defs><style>.a,.b{fill:#008416;}.a{opacity:0.5;}</style></defs><g transform="translate(-1222.938 -377.313)"><path class="a" d="M1698.86,545.1l1.742-.167c9.236-.889,27.905,2.853,32.45,23.376l.221,1a5.791,5.791,0,0,1-.786,4.39l-.553.859a28.426,28.426,0,0,1-7.769,8.155,46.854,46.854,0,0,1-21.16,7.568h0a73.88,73.88,0,0,1-28.684-2.668,1.434,1.434,0,0,0-1.58.561l-6.811,9.908a1.192,1.192,0,0,0,1.159,1.914l17.457-1.017a1.208,1.208,0,0,1,1.387,1.2l-.461,15.613c-.03,1.045,1.18,1.588,2.214.991l15.536-9.086a1.493,1.493,0,0,1,2,.261l8.63,12.65a1.587,1.587,0,0,0,2.607-.315l9.255-15.2a1.808,1.808,0,0,1,2.019-.839l15.214,5.3a1.822,1.822,0,0,0,2.273-1.683l.268-16.854a1.958,1.958,0,0,1,1.453-1.754l17.539-4.662a1.837,1.837,0,0,0,1.26-2.584l-9.185-12.546a1.623,1.623,0,0,1,.416-2.1l14.541-13.536c.983-.92.863-2.321-.219-2.557l-16.27-3.373a1.172,1.172,0,0,1-.809-1.684l6.555-17.515c.444-1.182-.5-2.038-1.726-1.565l-18.264,6.992a1.271,1.271,0,0,1-1.817-.673l-4.063-15.043c-.276-1-1.752-1.027-2.7-.051l-13.973,14.353a1.934,1.934,0,0,1-2.222.512l-13.48-7.653a2.132,2.132,0,0,0-2.729,1.342l-4.768,16.386S1695.438,545.363,1698.86,545.1Z" transform="translate(-287.238 45.905)"/><path class="b" d="M1701.717,551.609a5.7,5.7,0,0,0-2.41.517c-9.713,4.48-26.19-2.632-29.661-12.684-4.724-13.674,6.875-32.672,19.019-47.7l-1.958-1.511a223.582,223.582,0,0,1-31.935-11.14c-16.224,23.382-26.165,50.521-14.917,73.041,12.151,24.328,56.046,37.672,78.474,22.295a18.678,18.678,0,0,0,3.515-3.163,5.8,5.8,0,0,0,1.1-5.75C1718.438,552.789,1706.029,551.619,1701.717,551.609Z" transform="translate(-286.063 47.385)"/><path class="b" d="M1604.73,417.095c-1.424-1.153-1.95.263-2.419,1.23-1.5,3.164-2.056,9.927-.489,14.616,1.818,5.439,9.08,12.943,20.242,19.549s25.782,12.488,40.835,16.756a198.678,198.678,0,0,0,39.1,7.086C1658.779,460.665,1630.919,434.06,1604.73,417.095Z" transform="translate(-284.75 49.782)"/><path class="b" d="M1585.181,408.414c3.433-5.513,6.925-9.594,12.876-10.2a17.6,17.6,0,0,1,11.02,2.866c23.326,15.111,45.29,34.99,75.19,49.64-.763-5.41-1.486-10.566-2.043-15.333-.867-7.394-25.1-78.159-55.153-109.253-19.332-2.518-33.922-3.515-51.2.79h0c-23.278,11.911-56.931,25.252-71.374,46.162a27.24,27.24,0,0,0-.409,8.348c.561,7.292,2.972,17.158,6.124,26.868A280.779,280.779,0,0,0,1520.5,435c1.639,3.674,3.138,6.784,4.289,8.984,12.526,14.279,33.824,24.583,51.485,28.62a9.73,9.73,0,0,0,11.341-6.144l4.335-11.952a9.712,9.712,0,0,0-1.428-9.213C1582.219,434.441,1579.813,420.232,1585.181,408.414Zm57.29-30.565,14.648,16.276S1629.008,399,1642.471,377.849Z" transform="translate(-281.03 53.34)"/></g></svg>